<svg width="515" height="533" viewBox="0 0 515 533" fill="none" xmlns="http://www.w3.org/2000/svg">
<path d="M30.5 397.5V201.5L9 190V385L30.5 397.5Z" fill="#6F4829"/>
<path d="M50 190V385L30.5 397.5M50 190L30.5 201.5M50 190H9M30.5 397.5V201.5M30.5 397.5L9 385V190M30.5 201.5L9 190" stroke="#4E2F13"/>
<path d="M50 190V385L30.5 397.5V201.5L50 190Z" fill="#563217" stroke="#4E2F13"/>
<path d="M486.5 397.5V201.5L465 190V385L486.5 397.5Z" fill="#6F4829"/>
<path d="M506 190V385L486.5 397.5M506 190L486.5 201.5M506 190H465M486.5 397.5V201.5M486.5 397.5L465 385V190M486.5 201.5L465 190" stroke="#4E2F13"/>
<path d="M506 190V385L486.5 397.5V201.5L506 190Z" fill="#563217" stroke="#4E2F13"/>
<path d="M257.5 531.5V335.5L236 324V519L257.5 531.5Z" fill="#6F4829"/>
<path d="M277 324V519L257.5 531.5M277 324L257.5 335.5M277 324H236M257.5 531.5V335.5M257.5 531.5L236 519V324M257.5 335.5L236 324" stroke="#4E2F13"/>
<path d="M277 324V519L257.5 531.5V335.5L277 324Z" fill="#563217" stroke="#4E2F13"/>
<path d="M0.5 150.5L257.5 308L514 158.5L266.5 1L0.5 150.5Z" fill="#856445"/>
<path d="M257.5 308L0.5 150.5V186L257.5 338V308Z" fill="#856445"/>
<path d="M514 158.5L257.5 308V338L514 192V158.5Z" fill="#856445"/>
<path d="M0.5 150.5L257.5 308M0.5 150.5L266.5 1L514 158.5M0.5 150.5V186L257.5 338M257.5 308L514 158.5M257.5 308V338M514 158.5V192L257.5 338" stroke="#4E2F13"/>
<path d="M514 158.5L257.5 308V338L514 192V158.5Z" fill="#563217" stroke="#2E2F13"/>
<path d="M257.5 308L0.5 150.5V186L257.5 338V308Z" fill="#6F4829" stroke="#4E2F13"/>
<path d="M53 150.795L259.201 277L465 157.205L266.422 31L53 150.795Z" fill="#333333" stroke="#222222" stroke-width="5"/>
</svg>
