<svg width="312" height="364" viewBox="0 0 312 364" fill="none" xmlns="http://www.w3.org/2000/svg">
<path d="M155.608 181.682V363.363L311.214 272.522V90.841L155.608 181.682Z" fill="#845335"/>
<path d="M0.000976562 90.841V272.522L155.608 363.363V181.682L0.000976562 90.841Z" fill="#62361D"/>
<path d="M311.214 90.841L155.608 0L0.000976562 90.841L155.608 181.682L311.214 90.841Z" fill="#DCDC7C"/>
<path d="M155.608 181.682V225.929L311.214 135.089V90.841L155.608 181.682Z" fill="#B87D5B"/>
<path d="M0.000976562 90.841V135.089L155.608 225.929V181.682L0.000976562 90.841Z" fill="#7A4526"/>
<path d="M311.214 90.841L155.608 0L0.000976562 90.841L155.608 181.682L311.214 90.841Z" fill="#53BEE1"/>
<path d="M204.315 293.207C203.888 293.432 203.472 293.695 203.062 293.975C203.834 292.742 204.315 291.374 204.315 290.14C204.315 287.599 202.303 286.6 199.822 287.908C197.341 289.216 195.329 292.335 195.329 294.876C195.329 297.344 197.232 298.339 199.616 297.196C197.479 299.846 196.078 303.114 196.078 305.982C196.078 310.64 199.766 312.472 204.315 310.075C208.864 307.678 212.552 301.958 212.552 297.301C212.552 292.642 208.864 290.81 204.315 293.207Z" fill="#B87D5B"/>
<path d="M224.534 265.685C220.812 267.646 217.794 272.326 217.794 276.137C217.794 279.948 220.811 281.447 224.534 279.486C228.256 277.525 231.274 272.845 231.274 269.034C231.274 265.223 228.256 263.724 224.534 265.685Z" fill="#B87D5B"/>
<path d="M221.539 247.776C221.539 243.753 218.354 242.171 214.425 244.241C210.496 246.311 207.311 251.251 207.311 255.273C207.311 255.415 207.344 255.53 207.352 255.666C206.381 255.916 205.367 256.297 204.316 256.851C197.733 260.32 192.396 268.596 192.396 275.336C192.396 275.97 192.458 276.556 192.549 277.116C191.292 276.634 189.655 276.78 187.841 277.736C183.912 279.806 180.727 284.746 180.727 288.768C180.727 292.791 183.912 294.373 187.841 292.303C191.694 290.272 194.814 285.486 194.933 281.508C197.115 283.212 200.502 283.268 204.316 281.258C210.899 277.789 216.235 269.513 216.235 262.773C216.235 260.99 215.853 259.503 215.182 258.33C218.749 256.06 221.539 251.533 221.539 247.776Z" fill="#B87D5B"/>
<path d="M178.106 275.584C178.106 277.489 179.615 278.239 181.476 277.258C183.337 276.277 184.846 273.938 184.846 272.032C184.846 270.126 183.337 269.377 181.476 270.358C179.614 271.339 178.106 273.678 178.106 275.584Z" fill="#B87D5B"/>
<path d="M170.243 267.524C173.701 265.702 176.584 261.788 177.479 258.069C178.085 258.212 178.733 258.276 179.418 258.26C177.798 259.905 176.67 262.177 176.67 264.137C176.67 266.854 178.821 267.923 181.475 266.525C184.129 265.126 186.281 261.79 186.281 259.073C186.281 257.87 185.843 257.013 185.142 256.527C191.827 252.841 197.201 244.421 197.201 237.537C197.201 230.55 191.669 227.802 184.845 231.398C178.021 234.994 172.489 243.573 172.489 250.56C172.489 250.803 172.511 251.028 172.525 251.26C171.801 251.405 171.044 251.642 170.243 252.064C166.073 254.261 162.693 259.504 162.693 263.773C162.692 268.041 166.073 269.721 170.243 267.524Z" fill="#B87D5B"/>
<path d="M170.243 274.552C167.451 276.023 165.188 279.533 165.188 282.392C165.188 285.25 167.451 286.375 170.243 284.904C173.035 283.433 175.298 279.923 175.298 277.065C175.298 274.205 173.035 273.08 170.243 274.552Z" fill="#B87D5B"/>
<path d="M185.968 305.942C185.968 302.978 183.621 301.812 180.726 303.337C177.831 304.862 175.484 308.502 175.484 311.466C175.484 314.43 177.831 315.596 180.726 314.071C183.622 312.545 185.968 308.906 185.968 305.942Z" fill="#B87D5B"/>
<path d="M187.841 311.855C185.153 313.272 182.973 316.651 182.973 319.404C182.973 322.157 185.152 323.239 187.841 321.823C190.53 320.407 192.708 317.027 192.708 314.274C192.708 311.522 190.529 310.439 187.841 311.855Z" fill="#B87D5B"/>
<path d="M221.539 285.664C219.678 286.645 218.169 288.984 218.169 290.89C218.169 292.795 219.678 293.545 221.539 292.564C223.4 291.583 224.909 289.244 224.909 287.338C224.909 285.432 223.4 284.683 221.539 285.664Z" fill="#B87D5B"/>
<path d="M247.499 234.096C247.499 228.52 243.084 226.327 237.638 229.197C232.192 232.067 227.777 238.913 227.777 244.489C227.777 249.069 230.759 251.36 234.841 250.444C234.258 251.427 233.893 252.497 233.893 253.47C233.893 255.587 235.569 256.42 237.637 255.33C239.705 254.24 241.381 251.641 241.381 249.523C241.381 248.551 241.016 247.865 240.433 247.496C244.518 244.109 247.499 238.676 247.499 234.096Z" fill="#B87D5B"/>
<path d="M227.778 228.006C231.156 226.226 233.894 221.979 233.894 218.521C233.894 215.062 231.156 213.702 227.778 215.482C224.4 217.262 221.662 221.509 221.662 224.967C221.662 228.425 224.4 229.786 227.778 228.006Z" fill="#B87D5B"/>
<path d="M208.374 238.232C208.374 240.595 210.245 241.525 212.553 240.308C214.861 239.092 216.732 236.19 216.732 233.827C216.732 231.464 214.861 230.534 212.553 231.751C210.244 232.967 208.374 235.869 208.374 238.232Z" fill="#B87D5B"/>
<path d="M209.931 228.912C215.721 225.861 220.415 218.582 220.415 212.654C220.415 206.726 215.721 204.394 209.931 207.445C204.141 210.496 199.447 217.775 199.447 223.703C199.448 229.631 204.141 231.963 209.931 228.912Z" fill="#B87D5B"/>
<path d="M243.255 215.697C245.186 214.679 246.797 212.502 247.312 210.423C248.673 210.439 250.221 210.044 251.867 209.177C257.278 206.326 261.664 199.523 261.664 193.984C261.664 188.444 257.278 186.265 251.867 189.116C246.456 191.967 242.07 198.769 242.07 204.309C242.07 205.498 242.283 206.522 242.654 207.385C240.597 208.77 239.011 211.399 239.011 213.588C239.011 215.988 240.911 216.932 243.255 215.697Z" fill="#B87D5B"/>
<path d="M255.985 211.796C251.814 213.994 248.433 219.238 248.433 223.508C248.433 226.539 250.152 228.229 252.633 228.19C251.229 229.988 250.307 232.164 250.307 234.086C250.307 237.297 252.849 238.56 255.985 236.907C259.121 235.254 261.663 231.312 261.663 228.101C261.663 226.179 260.741 224.975 259.337 224.656C261.817 222.082 263.537 218.579 263.537 215.548C263.538 211.278 260.156 209.598 255.985 211.796Z" fill="#B87D5B"/>
<path d="M250.307 242.903C247.205 244.538 244.691 248.437 244.691 251.613C244.691 254.789 247.206 256.038 250.307 254.404C253.408 252.77 255.923 248.87 255.923 245.694C255.923 242.518 253.409 241.269 250.307 242.903Z" fill="#B87D5B"/>
<path d="M162.692 295.59C160.004 297.007 157.825 300.386 157.825 303.139C157.825 305.892 160.004 306.974 162.692 305.558C165.38 304.141 167.56 300.762 167.56 298.009C167.56 295.256 165.38 294.173 162.692 295.59Z" fill="#B87D5B"/>
<path d="M231.274 209.998C233.549 208.799 235.393 205.94 235.393 203.611C235.393 201.282 233.549 200.366 231.274 201.565C228.999 202.764 227.155 205.623 227.155 207.952C227.155 210.281 228.999 211.197 231.274 209.998Z" fill="#B87D5B"/>
<path d="M273.456 197.353C273.456 194.461 271.166 193.323 268.341 194.812C265.516 196.301 263.226 199.852 263.226 202.744C263.226 205.636 265.516 206.774 268.341 205.285C271.166 203.796 273.456 200.245 273.456 197.353Z" fill="#B87D5B"/>
<path d="M311.214 220.513C308.537 219.99 304.822 222.229 302.484 225.955C299.907 230.063 299.994 234.385 302.68 235.608C305.044 236.685 308.63 234.999 311.214 231.778V220.513Z" fill="#B87D5B"/>
<path d="M311.214 193.448C311.014 193.322 310.826 193.183 310.604 193.082C305.854 190.918 298.309 195.053 293.751 202.318C293.322 203.002 292.949 203.688 292.603 204.374C292.47 202.727 291.774 201.417 290.465 200.82C287.63 199.529 283.127 201.997 280.406 206.332C277.685 210.667 277.778 215.23 280.613 216.521C283.393 217.788 287.769 215.426 290.503 211.245C290.147 215.038 291.346 218.136 294.098 219.389C298.848 221.553 306.393 217.418 310.951 210.153C311.045 210.003 311.124 209.852 311.214 209.702V193.448V193.448Z" fill="#B87D5B"/>
<path d="M288.465 194.597C289.808 195.209 291.941 194.04 293.23 191.986C294.519 189.932 294.475 187.771 293.132 187.159C291.789 186.547 289.656 187.716 288.367 189.77C287.078 191.824 287.122 193.985 288.465 194.597Z" fill="#B87D5B"/>
<path d="M311.214 149.718C308.289 151.487 305.431 154.268 303.24 157.76C303.076 158.021 302.932 158.284 302.78 158.546C302.417 158.053 301.981 157.629 301.403 157.366C298.394 155.995 293.615 158.615 290.727 163.216C287.839 167.817 287.938 172.66 290.947 174.03C293.442 175.167 297.141 173.534 299.983 170.328C300.108 171.026 300.301 171.676 300.562 172.272C298.858 172.592 296.91 174.03 295.584 176.143C293.746 179.072 293.809 182.153 295.724 183.026C297.639 183.898 300.681 182.231 302.519 179.302C303.333 178.005 303.752 176.689 303.825 175.537C305.939 176.403 308.552 176.11 311.215 174.916V149.718H311.214Z" fill="#B87D5B"/>
<path d="M286.341 188.847C288.274 185.766 288.208 182.524 286.194 181.607C284.18 180.689 280.98 182.443 279.046 185.524C277.113 188.605 277.179 191.847 279.193 192.764C281.208 193.682 284.408 191.928 286.341 188.847Z" fill="#B87D5B"/>
<path d="M287.962 222.527C286.172 221.711 283.327 223.27 281.609 226.009C279.938 228.673 279.961 231.455 281.61 232.357C279.036 233.296 276.312 235.558 274.371 238.651C271.221 243.672 271.328 248.954 274.611 250.449C277.893 251.944 283.108 249.087 286.258 244.066C289.408 239.046 289.301 233.763 286.018 232.268C285.704 232.125 285.358 232.057 285.012 231.991C286.138 231.356 287.251 230.304 288.093 228.962C289.811 226.224 289.752 223.343 287.962 222.527Z" fill="#B87D5B"/>
<path d="M292.644 242.194C291.355 244.248 291.399 246.409 292.742 247.02C294.085 247.632 296.218 246.463 297.507 244.409C298.796 242.355 298.752 240.194 297.409 239.582C296.066 238.97 293.932 240.14 292.644 242.194Z" fill="#B87D5B"/>
<path d="M274.509 223.297C275.798 221.243 275.754 219.082 274.411 218.471C273.068 217.86 270.935 219.028 269.646 221.082C268.357 223.136 268.401 225.297 269.744 225.909C271.087 226.52 273.22 225.351 274.509 223.297Z" fill="#B87D5B"/>
<path d="M256.862 253.544C255.573 255.598 255.617 257.759 256.96 258.37C258.303 258.981 260.436 257.813 261.725 255.759C263.014 253.705 262.97 251.544 261.627 250.932C260.284 250.321 258.151 251.49 256.862 253.544Z" fill="#B87D5B"/>
<path d="M106.9 293.207C107.327 293.432 107.743 293.695 108.153 293.975C107.381 292.742 106.9 291.374 106.9 290.14C106.9 287.599 108.912 286.6 111.393 287.908C113.874 289.216 115.886 292.335 115.886 294.876C115.886 297.344 113.983 298.339 111.599 297.196C113.736 299.846 115.137 303.114 115.137 305.982C115.137 310.64 111.449 312.472 106.9 310.075C102.351 307.678 98.6631 301.958 98.6631 297.301C98.6631 292.642 102.351 290.81 106.9 293.207Z" fill="#7A4526"/>
<path d="M86.6819 265.685C90.4039 267.646 93.4219 272.326 93.4219 276.137C93.4219 279.948 90.4049 281.447 86.6819 279.486C82.9599 277.525 79.9419 272.845 79.9419 269.034C79.9419 265.223 82.9589 263.724 86.6819 265.685Z" fill="#7A4526"/>
<path d="M89.6768 247.776C89.6768 243.753 92.8618 242.171 96.7908 244.241C100.72 246.311 103.905 251.251 103.905 255.273C103.905 255.415 103.872 255.53 103.864 255.666C104.835 255.916 105.849 256.297 106.9 256.851C113.483 260.32 118.82 268.596 118.82 275.336C118.82 275.97 118.758 276.556 118.667 277.116C119.924 276.634 121.561 276.78 123.375 277.736C127.304 279.806 130.489 284.746 130.489 288.768C130.489 292.791 127.304 294.373 123.375 292.303C119.521 290.272 116.402 285.486 116.283 281.508C114.101 283.212 110.714 283.268 106.9 281.258C100.317 277.789 94.9797 269.513 94.9797 262.773C94.9797 260.99 95.3618 259.503 96.0328 258.33C92.4658 256.06 89.6768 251.533 89.6768 247.776Z" fill="#7A4526"/>
<path d="M133.11 275.584C133.11 277.489 131.601 278.239 129.74 277.258C127.879 276.277 126.37 273.938 126.37 272.032C126.37 270.126 127.879 269.377 129.74 270.358C131.601 271.339 133.11 273.678 133.11 275.584Z" fill="#7A4526"/>
<path d="M140.973 267.524C137.515 265.702 134.632 261.788 133.737 258.069C133.131 258.212 132.483 258.276 131.798 258.26C133.418 259.905 134.546 262.177 134.546 264.137C134.546 266.854 132.395 267.923 129.74 266.525C127.086 265.126 124.934 261.79 124.934 259.073C124.934 257.87 125.372 257.013 126.073 256.527C119.388 252.841 114.014 244.421 114.014 237.537C114.014 230.55 119.546 227.802 126.37 231.398C133.194 234.994 138.726 243.573 138.726 250.56C138.726 250.803 138.704 251.028 138.69 251.26C139.414 251.405 140.171 251.642 140.972 252.064C145.142 254.261 148.522 259.504 148.522 263.773C148.523 268.041 145.143 269.721 140.973 267.524Z" fill="#7A4526"/>
<path d="M140.973 274.552C143.765 276.023 146.028 279.533 146.028 282.392C146.028 285.25 143.765 286.375 140.973 284.904C138.181 283.433 135.918 279.923 135.918 277.065C135.918 274.205 138.181 273.08 140.973 274.552Z" fill="#7A4526"/>
<path d="M125.247 305.942C125.247 302.978 127.594 301.812 130.489 303.337C133.384 304.862 135.731 308.502 135.731 311.466C135.731 314.43 133.384 315.596 130.489 314.071C127.594 312.545 125.247 308.906 125.247 305.942Z" fill="#7A4526"/>
<path d="M123.375 311.855C126.063 313.272 128.242 316.651 128.242 319.404C128.242 322.157 126.063 323.239 123.375 321.823C120.687 320.407 118.507 317.027 118.507 314.274C118.508 311.522 120.687 310.439 123.375 311.855Z" fill="#7A4526"/>
<path d="M89.6771 285.664C91.5381 286.645 93.0471 288.984 93.0471 290.89C93.0471 292.795 91.5381 293.545 89.6771 292.564C87.8161 291.583 86.3071 289.244 86.3071 287.338C86.3071 285.432 87.8161 284.683 89.6771 285.664Z" fill="#7A4526"/>
<path d="M63.7158 234.096C63.7158 228.52 68.1308 226.327 73.5768 229.197C79.0228 232.067 83.4377 238.913 83.4377 244.489C83.4377 249.069 80.4558 251.36 76.3738 250.444C76.9568 251.427 77.3218 252.497 77.3218 253.47C77.3218 255.587 75.6458 256.42 73.5778 255.33C71.5098 254.24 69.8337 251.641 69.8337 249.523C69.8337 248.551 70.1987 247.865 70.7817 247.496C66.6977 244.109 63.7158 238.676 63.7158 234.096Z" fill="#7A4526"/>
<path d="M83.4382 228.006C80.0602 226.226 77.3223 221.979 77.3223 218.521C77.3223 215.062 80.0602 213.702 83.4382 215.482C86.8162 217.262 89.5543 221.509 89.5543 224.967C89.5543 228.425 86.8162 229.786 83.4382 228.006Z" fill="#7A4526"/>
<path d="M102.842 238.232C102.842 240.595 100.971 241.525 98.663 240.308C96.355 239.092 94.4839 236.19 94.4839 233.827C94.4839 231.464 96.355 230.534 98.663 231.751C100.971 232.967 102.842 235.869 102.842 238.232Z" fill="#7A4526"/>
<path d="M101.284 228.912C95.4938 225.861 90.7998 218.582 90.7998 212.654C90.7998 206.726 95.4938 204.394 101.284 207.445C107.074 210.496 111.768 217.775 111.768 223.703C111.768 229.631 107.074 231.963 101.284 228.912Z" fill="#7A4526"/>
<path d="M67.9608 215.697C66.0298 214.679 64.4188 212.502 63.9038 210.423C62.5428 210.439 60.9948 210.044 59.3488 209.177C53.9378 206.326 49.5518 199.523 49.5518 193.984C49.5518 188.444 53.9378 186.265 59.3488 189.116C64.7598 191.967 69.1458 198.769 69.1458 204.309C69.1458 205.498 68.9328 206.522 68.5618 207.385C70.6188 208.77 72.2048 211.399 72.2048 213.588C72.2048 215.988 70.3048 216.932 67.9608 215.697Z" fill="#7A4526"/>
<path d="M55.2301 211.796C59.4011 213.994 62.7821 219.238 62.7821 223.508C62.7821 226.539 61.0631 228.229 58.5831 228.19C59.9871 229.988 60.9092 232.164 60.9092 234.086C60.9092 237.297 58.3672 238.56 55.2312 236.907C52.0952 235.254 49.5531 231.312 49.5531 228.101C49.5531 226.179 50.4752 224.975 51.8792 224.656C49.3992 222.082 47.6802 218.579 47.6802 215.548C47.6782 211.278 51.0591 209.598 55.2301 211.796Z" fill="#7A4526"/>
<path d="M60.9089 242.903C64.0109 244.538 66.5249 248.437 66.5249 251.613C66.5249 254.789 64.0099 256.038 60.9089 254.404C57.8079 252.77 55.293 248.87 55.293 245.694C55.292 242.518 57.8069 241.269 60.9089 242.903Z" fill="#7A4526"/>
<path d="M148.523 295.59C151.211 297.007 153.391 300.386 153.391 303.139C153.391 305.892 151.212 306.974 148.523 305.558C145.835 304.141 143.656 300.762 143.656 298.009C143.656 295.256 145.835 294.173 148.523 295.59Z" fill="#7A4526"/>
<path d="M79.9423 209.998C77.6673 208.799 75.8232 205.94 75.8232 203.611C75.8232 201.282 77.6673 200.366 79.9423 201.565C82.2173 202.764 84.0613 205.623 84.0613 207.952C84.0613 210.281 82.2173 211.197 79.9423 209.998Z" fill="#7A4526"/>
<path d="M37.7598 197.353C37.7598 194.461 40.0498 193.323 42.8748 194.812C45.6998 196.301 47.9897 199.852 47.9897 202.744C47.9897 205.636 45.6998 206.774 42.8748 205.285C40.0498 203.796 37.7598 200.245 37.7598 197.353Z" fill="#7A4526"/>
<path d="M0.000976562 220.513C2.67798 219.99 6.39308 222.229 8.73108 225.955C11.3081 230.063 11.221 234.385 8.53503 235.608C6.17103 236.685 2.58498 234.999 0.000976562 231.778V220.513Z" fill="#7A4526"/>
<path d="M0.000976562 193.448C0.200977 193.322 0.389084 193.183 0.611084 193.082C5.36108 190.918 12.906 195.053 17.464 202.318C17.893 203.002 18.2661 203.688 18.6121 204.374C18.7451 202.727 19.442 201.417 20.75 200.82C23.585 199.529 28.0881 201.997 30.8091 206.332C33.5301 210.667 33.4371 215.23 30.6021 216.521C27.8221 217.788 23.446 215.426 20.712 211.245C21.068 215.038 19.8691 218.136 17.1171 219.389C12.3671 221.553 4.82204 217.418 0.264038 210.153C0.170038 210.003 0.0909766 209.852 0.000976562 209.702V193.448V193.448Z" fill="#7A4526"/>
<path d="M22.751 194.597C21.408 195.209 19.2751 194.04 17.9861 191.986C16.6971 189.932 16.741 187.771 18.084 187.159C19.427 186.547 21.56 187.716 22.849 189.77C24.137 191.824 24.093 193.985 22.751 194.597Z" fill="#7A4526"/>
<path d="M0.000976562 149.718C2.92598 151.487 5.78398 154.268 7.97498 157.76C8.13898 158.021 8.28306 158.284 8.43506 158.546C8.79806 158.053 9.23401 157.629 9.81201 157.366C12.821 155.995 17.6 158.615 20.488 163.216C23.375 167.818 23.2771 172.66 20.2681 174.03C17.7731 175.167 14.0741 173.534 11.2321 170.328C11.1071 171.026 10.9141 171.676 10.6531 172.272C12.3571 172.592 14.305 174.03 15.631 176.143C17.469 179.072 17.4061 182.153 15.4911 183.026C13.5761 183.898 10.534 182.231 8.69604 179.302C7.88204 178.005 7.46301 176.689 7.39001 175.537C5.27601 176.403 2.663 176.11 0 174.916V149.718H0.000976562Z" fill="#7A4526"/>
<path d="M24.874 188.847C22.941 185.766 23.007 182.524 25.021 181.607C27.035 180.689 30.2351 182.443 32.1691 185.524C34.1031 188.605 34.0361 191.847 32.0221 192.764C30.0081 193.682 26.808 191.928 24.874 188.847Z" fill="#7A4526"/>
<path d="M23.2543 222.527C25.0443 221.711 27.8893 223.27 29.6073 226.009C31.2783 228.673 31.2553 231.455 29.6063 232.357C32.1803 233.296 34.9043 235.558 36.8453 238.651C39.9953 243.672 39.8882 248.954 36.6052 250.449C33.3232 251.944 28.1082 249.087 24.9582 244.066C21.8082 239.046 21.9152 233.763 25.1982 232.268C25.5122 232.125 25.8582 232.057 26.2042 231.991C25.0782 231.356 23.9653 230.304 23.1243 228.962C21.4053 226.224 21.4633 223.343 23.2543 222.527Z" fill="#7A4526"/>
<path d="M18.5723 242.194C19.8613 244.248 19.8172 246.409 18.4742 247.02C17.1312 247.632 14.9982 246.463 13.7092 244.409C12.4202 242.355 12.4642 240.194 13.8072 239.582C15.1502 238.971 17.2833 240.14 18.5723 242.194Z" fill="#7A4526"/>
<path d="M36.7073 223.297C35.4183 221.243 35.4623 219.082 36.8053 218.471C38.1483 217.86 40.2813 219.028 41.5703 221.082C42.8593 223.136 42.8153 225.297 41.4723 225.909C40.1293 226.52 37.9953 225.351 36.7073 223.297Z" fill="#7A4526"/>
<path d="M54.3539 253.544C55.6429 255.598 55.5989 257.759 54.2559 258.37C52.9129 258.982 50.78 257.813 49.491 255.759C48.202 253.705 48.2459 251.544 49.5889 250.932C50.9319 250.32 53.0649 251.49 54.3539 253.544Z" fill="#7A4526"/>
</svg>
