<svg width="520" height="533" viewBox="0 0 520 533" fill="none" xmlns="http://www.w3.org/2000/svg">
<path d="M491.5 395.5V199.5L470 188V383L491.5 395.5Z" fill="#5C4231"/>
<path d="M511 188V383L491.5 395.5M511 188L491.5 199.5M511 188H470M491.5 395.5V199.5M491.5 395.5L470 383V188M491.5 199.5L470 188" stroke="#4E2F13"/>
<path d="M511 188V383L491.5 395.5V199.5L511 188Z" fill="#755836" stroke="#4E2F13" stroke-opacity="0.5"/>
<path d="M258.5 522.5V326.5L237 315V510L258.5 522.5Z" fill="#5C4231"/>
<path d="M278 315V510L258.5 522.5M278 315L258.5 326.5M278 315H237M258.5 522.5V326.5M258.5 522.5L237 510V315M258.5 326.5L237 315" stroke="#4E2F13"/>
<path d="M278 315V510L258.5 522.5V326.5L278 315Z" fill="#755836" stroke="#4E2F13" stroke-opacity="0.5"/>
<path d="M30.5 395.5V199.5L9 188V383L30.5 395.5Z" fill="#5C4231"/>
<path d="M50 188V383L30.5 395.5M50 188L30.5 199.5M50 188H9M30.5 395.5V199.5M30.5 395.5L9 383V188M30.5 199.5L9 188" stroke="#4E2F13"/>
<path d="M50 188V383L30.5 395.5V199.5L50 188Z" fill="#755836" stroke="#4E2F13" stroke-opacity="0.5"/>
<path d="M0.5 151.5L257.5 299L519 151.5C416.878 92.3356 361.122 60.1644 259 1L0.5 151.5Z" fill="#9D7552"/>
<path d="M257.5 299L0.5 151.5V184.5L257.5 331.5V299Z" fill="#9D7552"/>
<path d="M519 151.5L257.5 299V331.5L519 184.5V151.5Z" fill="#9D7552"/>
<path d="M0.5 151.5L257.5 299M0.5 151.5L259 1C361.122 60.1644 416.878 92.3356 519 151.5M0.5 151.5V184.5L257.5 331.5M257.5 299L519 151.5M257.5 299V331.5M519 151.5V184.5L257.5 331.5" stroke="#4E2F13"/>
<path d="M519 153.214C519 152.448 518.174 151.967 517.508 152.344L258 299.091V332L519 184.379V153.214Z" fill="#755836" stroke="#493326" stroke-opacity="0.5"/>
<path d="M258 299.091L1 151V184.379L258 332V299.091Z" fill="#5C4231" stroke="#493326"/>
</svg>
