<svg width="944" height="1100" viewBox="0 0 944 1100" fill="none" xmlns="http://www.w3.org/2000/svg">
<path d="M472 550V1100L943.061 825V275L472 550Z" fill="#B87D5B"/>
<path d="M0.936035 275V825L472 1100V550L0.936035 275Z" fill="#7A4526"/>
<path d="M943.061 275L472 0L0.936035 275L472 550L943.061 275Z" fill="#53BEE1"/>
<path d="M472 948.594V1033.34L943.061 758.337V673.594L472 948.594Z" fill="#E7AA69"/>
<path d="M0.936035 673.594V758.337L472 1033.34V948.594L0.936035 673.594Z" fill="#D8934E"/>
<path d="M650.052 977.511C638.927 983.375 629.878 996.813 628.743 1008.5L671.088 983.774C668.981 974.968 660.369 972.074 650.052 977.511Z" fill="#E7AA69"/>
<path d="M516.304 1047.99C526.772 1042.48 535.5 1030.63 538.209 1019.37C540.044 1019.8 542.005 1020 544.079 1019.95C539.175 1024.93 535.76 1031.81 535.76 1037.74C535.76 1045.96 542.272 1049.2 550.306 1044.97C558.34 1040.73 564.855 1030.63 564.855 1022.41C564.855 1018.77 563.529 1016.17 561.407 1014.7C581.644 1003.54 597.913 978.056 597.913 957.216C597.913 936.064 581.166 927.746 560.508 938.632C539.85 949.518 523.103 975.489 523.103 996.641C523.103 997.377 523.17 998.058 523.209 998.76C521.017 999.199 518.726 999.916 516.301 1001.19C503.677 1007.84 493.445 1023.72 493.445 1036.64C493.445 1049.56 503.68 1054.65 516.304 1047.99Z" fill="#E7AA69"/>
<path d="M516.304 1069.27C511.651 1071.72 507.534 1076.06 504.728 1080.89L526.751 1068.03C524.015 1066.84 520.355 1067.13 516.304 1069.27Z" fill="#E7AA69"/>
<path d="M720.33 931.966C705.793 939.625 693.699 956.641 691.038 972.129L748.829 938.39C745.038 927.964 733.713 924.912 720.33 931.966Z" fill="#E7AA69"/>
<path d="M708.993 899.646C708.993 889.175 700.704 885.058 690.478 890.446C680.252 895.835 671.963 908.691 671.963 919.16C671.963 929.628 680.252 933.748 690.478 928.36C700.704 922.971 708.993 910.118 708.993 899.646Z" fill="#E7AA69"/>
<path d="M644.385 939.697C637.398 943.378 631.734 952.163 631.734 959.317C631.734 966.47 637.398 969.286 644.385 965.602C651.372 961.921 657.036 953.136 657.036 945.982C657.036 938.831 651.372 936.016 644.385 939.697Z" fill="#E7AA69"/>
<path d="M636.45 866.116C618.922 875.352 604.712 897.388 604.712 915.333C604.712 933.278 618.922 940.338 636.45 931.102C653.978 921.866 668.188 899.83 668.188 881.885C668.188 863.94 653.978 856.88 636.45 866.116Z" fill="#E7AA69"/>
<path d="M724.483 884.713C724.483 891.978 730.235 894.836 737.331 891.098C743.177 888.016 748.054 881.426 749.613 875.132C753.733 875.18 758.419 873.985 763.402 871.36C779.783 862.729 793.06 842.135 793.06 825.367C793.06 808.596 779.782 802 763.402 810.63C747.021 819.261 733.744 839.852 733.744 856.623C733.744 860.222 734.389 863.322 735.512 865.935C729.285 870.128 724.483 878.086 724.483 884.713Z" fill="#E7AA69"/>
<path d="M775.868 879.288C763.241 885.942 753.006 901.817 753.006 914.743C753.006 923.667 757.95 928.711 765.127 928.874L788.818 915.042C794.785 907.689 798.729 898.628 798.729 890.645C798.73 877.723 788.495 872.637 775.868 879.288Z" fill="#E7AA69"/>
<path d="M701.058 848.316C694.171 851.946 688.589 860.601 688.589 867.651C688.589 874.702 694.171 877.474 701.058 873.845C707.945 870.215 713.527 861.56 713.527 854.51C713.528 847.462 707.945 844.686 701.058 848.316Z" fill="#E7AA69"/>
<path d="M813.273 827.873C804.721 832.378 797.789 843.13 797.789 851.885C797.789 860.64 804.721 864.085 813.273 859.577C821.825 855.069 828.757 844.32 828.757 835.565C828.757 826.81 821.825 823.368 813.273 827.873Z" fill="#E7AA69"/>
<path d="M941.218 822.636C926.841 816.085 903.998 828.603 890.199 850.596C888.9 852.667 887.768 854.743 886.724 856.82C886.321 851.834 884.214 847.868 880.252 846.061C871.67 842.153 858.038 849.624 849.801 862.747C845.363 869.819 843.483 877.039 843.955 882.854L943.062 824.997V823.744C942.456 823.365 941.886 822.941 941.218 822.636Z" fill="#E7AA69"/>
<path d="M874.194 827.222C878.26 829.075 884.717 825.536 888.619 819.318C892.521 813.1 892.388 806.558 888.322 804.705C884.256 802.852 877.799 806.391 873.9 812.609C869.995 818.827 870.128 825.369 874.194 827.222Z" fill="#E7AA69"/>
<path d="M918.922 715.707C918.425 716.497 917.99 717.293 917.529 718.086C916.43 716.594 915.11 715.31 913.36 714.514C904.251 710.364 889.784 718.295 881.044 732.227C872.301 746.158 872.601 760.817 881.707 764.964C889.26 768.406 900.458 763.462 909.061 753.757C909.436 755.87 910.021 757.838 910.814 759.642C905.656 760.611 899.755 764.964 895.744 771.361C890.18 780.228 890.371 789.555 896.168 792.198C901.965 794.841 911.174 789.791 916.738 780.924C919.202 776.998 920.471 773.014 920.692 769.526C927.089 772.148 935.002 771.261 943.064 767.646V691.359C934.206 696.717 925.554 705.135 918.922 715.707Z" fill="#E7AA69"/>
<path d="M867.319 787.898C861.222 785.119 851.535 790.429 845.68 799.756C839.828 809.083 840.028 818.897 846.125 821.673C852.222 824.452 861.909 819.142 867.764 809.815C873.616 800.488 873.416 790.677 867.319 787.898Z" fill="#E7AA69"/>
<path d="M293.945 977.511C283.628 972.074 275.016 974.968 272.912 983.774L315.257 1008.5C314.119 996.813 305.07 983.375 293.945 977.511Z" fill="#D8934E"/>
<path d="M427.696 1001.19C425.271 999.91 422.98 999.192 420.788 998.753C420.827 998.051 420.894 997.37 420.894 996.634C420.894 975.482 404.147 949.512 383.489 938.626C362.831 927.74 346.084 936.062 346.084 957.21C346.084 978.05 362.349 1003.54 382.59 1014.7C380.471 1016.17 379.142 1018.76 379.142 1022.4C379.142 1030.63 385.654 1040.73 393.691 1044.96C401.725 1049.2 408.237 1045.96 408.237 1037.73C408.237 1031.8 404.822 1024.92 399.918 1019.94C401.992 1019.99 403.95 1019.8 405.788 1019.36C408.497 1030.62 417.225 1042.47 427.693 1047.99C440.317 1054.64 450.549 1049.55 450.549 1036.63C450.552 1023.71 440.32 1007.84 427.696 1001.19Z" fill="#D8934E"/>
<path d="M427.696 1069.27C423.643 1067.13 419.986 1066.84 417.249 1068.03L439.272 1080.89C436.466 1076.06 432.349 1071.72 427.696 1069.27Z" fill="#D8934E"/>
<path d="M223.67 931.966C210.286 924.912 198.961 927.964 195.171 938.393L252.962 972.132C250.301 956.641 238.204 939.624 223.67 931.966Z" fill="#D8934E"/>
<path d="M253.519 890.447C243.293 885.058 235.004 889.179 235.004 899.647C235.004 910.115 243.293 922.972 253.519 928.361C263.745 933.75 272.034 929.629 272.034 919.161C272.037 908.692 263.745 895.835 253.519 890.447Z" fill="#D8934E"/>
<path d="M299.612 939.697C292.625 936.016 286.961 938.828 286.961 945.982C286.961 953.135 292.625 961.918 299.612 965.602C306.599 969.283 312.263 966.468 312.263 959.317C312.263 952.163 306.599 943.378 299.612 939.697Z" fill="#D8934E"/>
<path d="M339.285 915.334C339.285 897.388 325.075 875.353 307.547 866.117C290.019 856.881 275.809 863.94 275.809 881.886C275.809 899.832 290.019 921.867 307.547 931.103C325.075 940.339 339.285 933.279 339.285 915.334Z" fill="#D8934E"/>
<path d="M180.598 810.63C164.217 801.999 150.94 808.596 150.94 825.367C150.94 842.138 164.218 862.73 180.598 871.36C185.578 873.985 190.264 875.183 194.387 875.132C195.943 881.423 200.823 888.016 206.669 891.098C213.765 894.837 219.517 891.979 219.517 884.713C219.517 878.086 214.716 870.128 208.489 865.935C209.612 863.322 210.257 860.223 210.257 856.623C210.256 839.855 196.979 819.263 180.598 810.63Z" fill="#D8934E"/>
<path d="M190.991 914.743C190.991 901.817 180.756 885.942 168.129 879.288C155.502 872.634 145.267 877.72 145.267 890.646C145.267 898.629 149.211 907.686 155.178 915.04L178.869 928.872C186.048 928.711 190.991 923.668 190.991 914.743Z" fill="#D8934E"/>
<path d="M242.939 848.316C236.052 844.686 230.47 847.459 230.47 854.51C230.47 861.561 236.052 870.218 242.939 873.845C249.826 877.475 255.408 874.699 255.408 867.651C255.408 860.601 249.826 851.946 242.939 848.316Z" fill="#D8934E"/>
<path d="M146.209 851.885C146.209 843.13 139.277 832.38 130.725 827.873C122.173 823.366 115.241 826.81 115.241 835.565C115.241 844.32 122.173 855.07 130.725 859.577C139.276 864.085 146.209 860.64 146.209 851.885Z" fill="#D8934E"/>
<path d="M94.2 862.753C85.963 849.627 72.331 842.156 63.749 846.067C59.786 847.871 57.676 851.84 57.277 856.826C56.23 854.749 55.1 852.673 53.802 850.602C40.004 828.609 17.16 816.091 2.78304 822.642C2.11104 822.948 1.54204 823.369 0.936035 823.75V825.003L100.043 882.86C100.518 877.045 98.638 869.825 94.2 862.753Z" fill="#D8934E"/>
<path d="M55.678 804.705C51.612 806.558 51.479 813.1 55.381 819.318C59.283 825.536 65.74 829.075 69.806 827.222C73.872 825.369 74.005 818.827 70.103 812.612C66.201 806.391 59.744 802.853 55.678 804.705Z" fill="#D8934E"/>
<path d="M23.308 769.528C23.529 773.015 24.797 776.999 27.262 780.926C32.826 789.793 42.035 794.839 47.832 792.2C53.629 789.56 53.817 780.23 48.256 771.363C44.242 764.966 38.345 760.613 33.186 759.644C33.979 757.84 34.56 755.872 34.939 753.759C43.543 763.464 54.74 768.408 62.293 764.966C71.402 760.816 71.699 746.158 62.959 732.229C54.219 718.298 39.749 710.369 30.64 714.516C28.89 715.312 27.57 716.596 26.471 718.088C26.011 717.295 25.575 716.499 25.078 715.709C18.445 705.138 9.79296 696.719 0.938965 691.364V767.651C8.99796 771.26 16.911 772.15 23.308 769.528Z" fill="#D8934E"/>
<path d="M97.8721 821.676C103.969 818.897 104.169 809.086 98.3171 799.759C92.4651 790.432 82.7781 785.122 76.6781 787.901C70.5811 790.68 70.3811 800.491 76.2331 809.818C82.0851 819.145 91.7751 824.452 97.8721 821.676Z" fill="#D8934E"/>
<path d="M472 550V998.478L943.061 723.478V275L472 550Z" fill="#1AA5D6"/>
<path d="M0.936035 275V723.478L472 998.478V550L0.936035 275Z" fill="#2D96B6"/>
<path d="M472 961.56V998.478L943.061 723.478V686.563L472 961.56Z" fill="#D8934E"/>
<path d="M0.936035 686.563V723.478L472 998.478V961.56L0.936035 686.563Z" fill="#CD761F"/>
<path d="M472 961.56L943.061 686.563L590.569 480.782L472 550" fill="#2D96B6"/>
<path d="M472 961.56L0.936035 686.563L353.431 480.782L472 550V961.56Z" fill="#198CB0"/>
<path d="M654.874 657.856C640.482 657.856 640.458 680.224 654.874 680.224C669.266 680.221 669.29 657.856 654.874 657.856Z" fill="#1AA5D6"/>
<path d="M603.429 760.746C589.037 760.746 589.013 783.115 603.429 783.115C617.824 783.112 617.845 760.746 603.429 760.746Z" fill="#1AA5D6"/>
<path d="M563.169 615.356C548.777 615.356 548.753 637.724 563.169 637.724C577.561 637.724 577.585 615.356 563.169 615.356Z" fill="#1AA5D6"/>
<path d="M657.112 552.728C642.72 552.728 642.696 575.097 657.112 575.097C671.503 575.096 671.527 552.728 657.112 552.728Z" fill="#1AA5D6"/>
<path d="M813.685 675.75C799.293 675.75 799.269 698.119 813.685 698.119C828.076 698.115 828.101 675.75 813.685 675.75Z" fill="#1AA5D6"/>
<path d="M350.676 767.455C336.284 767.455 336.26 789.824 350.676 789.824C365.071 789.823 365.092 767.455 350.676 767.455Z" fill="#1AA5D6"/>
<path d="M254.497 657.856C240.105 657.856 240.081 680.224 254.497 680.224C268.889 680.221 268.913 657.856 254.497 657.856Z" fill="#1AA5D6"/>
<path d="M339.494 606.41C325.102 606.41 325.078 628.779 339.494 628.779C353.885 628.776 353.909 606.41 339.494 606.41Z" fill="#1AA5D6"/>
<path d="M299.231 570.622C284.839 570.622 284.815 592.99 299.231 592.99C313.625 592.99 313.65 570.622 299.231 570.622Z" fill="#1AA5D6"/>
<path d="M104.635 655.618C90.243 655.618 90.219 677.987 104.635 677.987C119.027 677.987 119.051 655.618 104.635 655.618Z" fill="#1AA5D6"/>
<path d="M113.584 503.519C99.192 503.519 99.168 525.888 113.584 525.888C127.975 525.888 128 503.519 113.584 503.519Z" fill="#1AA5D6"/>
<path d="M71.084 405.103C56.692 405.103 56.668 427.471 71.084 427.471C85.475 427.468 85.5 405.103 71.084 405.103Z" fill="#1AA5D6"/>
<path d="M185.157 445.363C170.765 445.363 170.741 467.731 185.157 467.731C199.552 467.731 199.573 445.363 185.157 445.363Z" fill="#1AA5D6"/>
<path d="M829.342 431.943C814.95 431.943 814.926 454.311 829.342 454.311C843.733 454.311 843.758 431.943 829.342 431.943Z" fill="#2D96B6"/>
<path d="M876.313 501.282C861.921 501.282 861.897 523.65 876.313 523.65C890.704 523.651 890.729 501.282 876.313 501.282Z" fill="#2D96B6"/>
</svg>
